<?xml version="1.0" encoding="UTF-8"?><svg id="Layer_2" xmlns="http://www.w3.org/2000/svg" viewBox="0 0 1474.51 1161.47"><defs><style>.cls-1,.cls-2,.cls-3{stroke-width:0px;}.cls-4{isolation:isolate;}.cls-2{fill:#d03f25;}.cls-3{fill:#fff;}</style></defs><g id="Layer_1-2"><g id="Group_58"><path id="Path_114" class="cls-2" d="m952.43,1054.15l465.9-614.92C1554.6,259.42,1427.52,0,1203.18,0H271.33C47,0-80.07,259.42,56.17,439.23l465.93,614.92c89.51,118.83,258.4,142.59,377.23,53.08,20.08-15.13,37.95-33,53.08-53.08"/></g><g id="S" class="cls-4"><g class="cls-4"><path class="cls-1" d="m717.23,467.82c0,47.31-38.19,85.5-85.5,85.5h-329.46v-54.72h360.25v-75.24h-289.56c-47.31,0-85.5-38.19-85.5-85.5v-13.68c0-47.31,38.19-85.5,85.5-85.5h329.46v54.72h-360.25v75.24h289.56c47.31,0,85.5,38.19,85.5,85.5v13.68Z"/></g></g><g id="G" class="cls-4"><g class="cls-4"><path class="cls-1" d="m1187.07,467.82c0,47.31-38.19,85.5-85.5,85.5h-243.96c-47.31,0-85.5-38.19-85.5-85.5v-143.64c0-47.31,38.19-85.5,85.5-85.5h329.46v54.72h-360.25v205.2h305.53v-75.24h-160.17v-54.72h214.89v99.18Z"/></g></g><g id="T" class="cls-4"><g class="cls-4"><path class="cls-3" d="m942.46,662.86h-177.84v259.92h-54.72v-259.92h-177.84v-54.72h410.41v54.72Z"/></g></g></g></svg>
